<?xml version="1.0" encoding="utf-8" standalone="no"?>
<!DOCTYPE svg PUBLIC "-//W3C//DTD SVG 1.1//EN"
  "http://www.w3.org/Graphics/SVG/1.1/DTD/svg11.dtd">
<svg xmlns:xlink="http://www.w3.org/1999/xlink" width="533.801908pt" height="281.911639pt" viewBox="0 0 533.801908 281.911639" xmlns="http://www.w3.org/2000/svg" version="1.1">
 <metadata>
  <rdf:RDF xmlns:dc="http://purl.org/dc/elements/1.1/" xmlns:cc="http://creativecommons.org/ns#" xmlns:rdf="http://www.w3.org/1999/02/22-rdf-syntax-ns#">
   <cc:Work>
    <dc:type rdf:resource="http://purl.org/dc/dcmitype/StillImage"/>
    <dc:date>2026-05-01T19:15:57.869317</dc:date>
    <dc:format>image/svg+xml</dc:format>
    <dc:creator>
     <cc:Agent>
      <dc:title>Matplotlib v3.10.1, https://matplotlib.org/</dc:title>
     </cc:Agent>
    </dc:creator>
   </cc:Work>
  </rdf:RDF>
 </metadata>
 <defs>
  <style type="text/css">*{stroke-linejoin: round; stroke-linecap: butt}</style>
 </defs>
 <g id="figure_1">
  <g id="patch_1">
   <path d="M 0 281.911639 
L 533.801908 281.911639 
L 533.801908 0 
L 0 0 
z
" style="fill: #ffffff"/>
  </g>
  <g id="axes_1">
   <g id="patch_2">
    <path d="M 100.693516 245.681951 
L 521.749516 245.681951 
L 521.749516 45.953951 
L 100.693516 45.953951 
z
" style="fill: #ffffff"/>
   </g>
   <g id="patch_3">
    <path d="M 100.693516 55.032497 
L 263.555045 55.032497 
L 263.555045 68.259517 
L 100.693516 68.259517 
z
" clip-path="url(#p107746c2a9)" style="fill: #cccccc"/>
   </g>
   <g id="patch_4">
    <path d="M 100.693516 79.081624 
L 263.365339 79.081624 
L 263.365339 92.308644 
L 100.693516 92.308644 
z
" clip-path="url(#p107746c2a9)" style="fill: #cccccc"/>
   </g>
   <g id="patch_5">
    <path d="M 100.693516 103.130751 
L 163.800716 103.130751 
L 163.800716 116.357771 
L 100.693516 116.357771 
z
" clip-path="url(#p107746c2a9)" style="fill: #cccccc"/>
   </g>
   <g id="patch_6">
    <path d="M 100.693516 127.179878 
L 163.595594 127.179878 
L 163.595594 140.406898 
L 100.693516 140.406898 
z
" clip-path="url(#p107746c2a9)" style="fill: #cccccc"/>
   </g>
   <g id="patch_7">
    <path d="M 100.693516 151.229005 
L 117.81182 151.229005 
L 117.81182 164.456025 
L 100.693516 164.456025 
z
" clip-path="url(#p107746c2a9)" style="fill: #cccccc"/>
   </g>
   <g id="patch_8">
    <path d="M 100.693516 175.278132 
L 117.722666 175.278132 
L 117.722666 188.505152 
L 100.693516 188.505152 
z
" clip-path="url(#p107746c2a9)" style="fill: #cccccc"/>
   </g>
   <g id="patch_9">
    <path d="M 100.693516 199.327259 
L 104.765121 199.327259 
L 104.765121 212.554279 
L 100.693516 212.554279 
z
" clip-path="url(#p107746c2a9)" style="fill: #cccccc"/>
   </g>
   <g id="patch_10">
    <path d="M 100.693516 223.376386 
L 102.810429 223.376386 
L 102.810429 236.603406 
L 100.693516 236.603406 
z
" clip-path="url(#p107746c2a9)" style="fill: #cccccc"/>
   </g>
   <g id="patch_11">
    <path d="M 263.555045 55.032497 
L 325.421793 55.032497 
L 325.421793 68.259517 
L 263.555045 68.259517 
z
" clip-path="url(#p107746c2a9)" style="fill: #bf5700"/>
   </g>
   <g id="patch_12">
    <path d="M 263.365339 79.081624 
L 445.821384 79.081624 
L 445.821384 92.308644 
L 263.365339 92.308644 
z
" clip-path="url(#p107746c2a9)" style="fill: #bf5700"/>
   </g>
   <g id="patch_13">
    <path d="M 163.800716 103.130751 
L 176.604085 103.130751 
L 176.604085 116.357771 
L 163.800716 116.357771 
z
" clip-path="url(#p107746c2a9)" style="fill: #bf5700"/>
   </g>
   <g id="patch_14">
    <path d="M 163.595594 127.179878 
L 217.059712 127.179878 
L 217.059712 140.406898 
L 163.595594 140.406898 
z
" clip-path="url(#p107746c2a9)" style="fill: #bf5700"/>
   </g>
   <g id="patch_15">
    <path d="M 117.81182 151.229005 
L 122.463599 151.229005 
L 122.463599 164.456025 
L 117.81182 164.456025 
z
" clip-path="url(#p107746c2a9)" style="fill: #bf5700"/>
   </g>
   <g id="patch_16">
    <path d="M 117.722666 175.278132 
L 146.640179 175.278132 
L 146.640179 188.505152 
L 117.722666 188.505152 
z
" clip-path="url(#p107746c2a9)" style="fill: #bf5700"/>
   </g>
   <g id="patch_17">
    <path d="M 104.765121 199.327259 
L 107.97032 199.327259 
L 107.97032 212.554279 
L 104.765121 212.554279 
z
" clip-path="url(#p107746c2a9)" style="fill: #bf5700"/>
   </g>
   <g id="patch_18">
    <path d="M 102.810429 223.376386 
L 106.242536 223.376386 
L 106.242536 236.603406 
L 102.810429 236.603406 
z
" clip-path="url(#p107746c2a9)" style="fill: #bf5700"/>
   </g>
   <g id="matplotlib.axis_1">
    <g id="xtick_1">
     <g id="line2d_1">
      <defs>
       <path id="m99bf209007" d="M 0 0 
L 0 3 
" style="stroke: #1a1a1a; stroke-width: 0.7"/>
      </defs>
      <g>
       <use xlink:href="#m99bf209007" x="100.693516" y="245.681951" style="fill: #1a1a1a; stroke: #1a1a1a; stroke-width: 0.7"/>
      </g>
     </g>
     <g id="text_1">
      <!-- 0.0 -->
      <g style="fill: #1a1a1a" transform="translate(93.743516 259.339764) scale(0.1 -0.1)">
       <defs>
        <path id="ArialMT-30" d="M 266 2259 
Q 266 3072 433 3567 
Q 600 4063 929 4331 
Q 1259 4600 1759 4600 
Q 2128 4600 2406 4451 
Q 2684 4303 2865 4023 
Q 3047 3744 3150 3342 
Q 3253 2941 3253 2259 
Q 3253 1453 3087 958 
Q 2922 463 2592 192 
Q 2263 -78 1759 -78 
Q 1097 -78 719 397 
Q 266 969 266 2259 
z
M 844 2259 
Q 844 1131 1108 757 
Q 1372 384 1759 384 
Q 2147 384 2411 759 
Q 2675 1134 2675 2259 
Q 2675 3391 2411 3762 
Q 2147 4134 1753 4134 
Q 1366 4134 1134 3806 
Q 844 3388 844 2259 
z
" transform="scale(0.015625)"/>
        <path id="ArialMT-2e" d="M 581 0 
L 581 641 
L 1222 641 
L 1222 0 
L 581 0 
z
" transform="scale(0.015625)"/>
       </defs>
       <use xlink:href="#ArialMT-30"/>
       <use xlink:href="#ArialMT-2e" transform="translate(55.615234 0)"/>
       <use xlink:href="#ArialMT-30" transform="translate(83.398438 0)"/>
      </g>
     </g>
    </g>
    <g id="xtick_2">
     <g id="line2d_2">
      <g>
       <use xlink:href="#m99bf209007" x="153.063315" y="245.681951" style="fill: #1a1a1a; stroke: #1a1a1a; stroke-width: 0.7"/>
      </g>
     </g>
     <g id="text_2">
      <!-- 0.5 -->
      <g style="fill: #1a1a1a" transform="translate(146.113315 259.339764) scale(0.1 -0.1)">
       <defs>
        <path id="ArialMT-35" d="M 266 1200 
L 856 1250 
Q 922 819 1161 601 
Q 1400 384 1738 384 
Q 2144 384 2425 690 
Q 2706 997 2706 1503 
Q 2706 1984 2436 2262 
Q 2166 2541 1728 2541 
Q 1456 2541 1237 2417 
Q 1019 2294 894 2097 
L 366 2166 
L 809 4519 
L 3088 4519 
L 3088 3981 
L 1259 3981 
L 1013 2750 
Q 1425 3038 1878 3038 
Q 2478 3038 2890 2622 
Q 3303 2206 3303 1553 
Q 3303 931 2941 478 
Q 2500 -78 1738 -78 
Q 1113 -78 717 272 
Q 322 622 266 1200 
z
" transform="scale(0.015625)"/>
       </defs>
       <use xlink:href="#ArialMT-30"/>
       <use xlink:href="#ArialMT-2e" transform="translate(55.615234 0)"/>
       <use xlink:href="#ArialMT-35" transform="translate(83.398438 0)"/>
      </g>
     </g>
    </g>
    <g id="xtick_3">
     <g id="line2d_3">
      <g>
       <use xlink:href="#m99bf209007" x="205.433114" y="245.681951" style="fill: #1a1a1a; stroke: #1a1a1a; stroke-width: 0.7"/>
      </g>
     </g>
     <g id="text_3">
      <!-- 1.0 -->
      <g style="fill: #1a1a1a" transform="translate(198.483114 259.339764) scale(0.1 -0.1)">
       <defs>
        <path id="ArialMT-31" d="M 2384 0 
L 1822 0 
L 1822 3584 
Q 1619 3391 1289 3197 
Q 959 3003 697 2906 
L 697 3450 
Q 1169 3672 1522 3987 
Q 1875 4303 2022 4600 
L 2384 4600 
L 2384 0 
z
" transform="scale(0.015625)"/>
       </defs>
       <use xlink:href="#ArialMT-31"/>
       <use xlink:href="#ArialMT-2e" transform="translate(55.615234 0)"/>
       <use xlink:href="#ArialMT-30" transform="translate(83.398438 0)"/>
      </g>
     </g>
    </g>
    <g id="xtick_4">
     <g id="line2d_4">
      <g>
       <use xlink:href="#m99bf209007" x="257.802913" y="245.681951" style="fill: #1a1a1a; stroke: #1a1a1a; stroke-width: 0.7"/>
      </g>
     </g>
     <g id="text_4">
      <!-- 1.5 -->
      <g style="fill: #1a1a1a" transform="translate(250.852913 259.339764) scale(0.1 -0.1)">
       <use xlink:href="#ArialMT-31"/>
       <use xlink:href="#ArialMT-2e" transform="translate(55.615234 0)"/>
       <use xlink:href="#ArialMT-35" transform="translate(83.398438 0)"/>
      </g>
     </g>
    </g>
    <g id="xtick_5">
     <g id="line2d_5">
      <g>
       <use xlink:href="#m99bf209007" x="310.172712" y="245.681951" style="fill: #1a1a1a; stroke: #1a1a1a; stroke-width: 0.7"/>
      </g>
     </g>
     <g id="text_5">
      <!-- 2.0 -->
      <g style="fill: #1a1a1a" transform="translate(303.222712 259.339764) scale(0.1 -0.1)">
       <defs>
        <path id="ArialMT-32" d="M 3222 541 
L 3222 0 
L 194 0 
Q 188 203 259 391 
Q 375 700 629 1000 
Q 884 1300 1366 1694 
Q 2113 2306 2375 2664 
Q 2638 3022 2638 3341 
Q 2638 3675 2398 3904 
Q 2159 4134 1775 4134 
Q 1369 4134 1125 3890 
Q 881 3647 878 3216 
L 300 3275 
Q 359 3922 746 4261 
Q 1134 4600 1788 4600 
Q 2447 4600 2831 4234 
Q 3216 3869 3216 3328 
Q 3216 3053 3103 2787 
Q 2991 2522 2730 2228 
Q 2469 1934 1863 1422 
Q 1356 997 1212 845 
Q 1069 694 975 541 
L 3222 541 
z
" transform="scale(0.015625)"/>
       </defs>
       <use xlink:href="#ArialMT-32"/>
       <use xlink:href="#ArialMT-2e" transform="translate(55.615234 0)"/>
       <use xlink:href="#ArialMT-30" transform="translate(83.398438 0)"/>
      </g>
     </g>
    </g>
    <g id="xtick_6">
     <g id="line2d_6">
      <g>
       <use xlink:href="#m99bf209007" x="362.542511" y="245.681951" style="fill: #1a1a1a; stroke: #1a1a1a; stroke-width: 0.7"/>
      </g>
     </g>
     <g id="text_6">
      <!-- 2.5 -->
      <g style="fill: #1a1a1a" transform="translate(355.592511 259.339764) scale(0.1 -0.1)">
       <use xlink:href="#ArialMT-32"/>
       <use xlink:href="#ArialMT-2e" transform="translate(55.615234 0)"/>
       <use xlink:href="#ArialMT-35" transform="translate(83.398438 0)"/>
      </g>
     </g>
    </g>
    <g id="xtick_7">
     <g id="line2d_7">
      <g>
       <use xlink:href="#m99bf209007" x="414.91231" y="245.681951" style="fill: #1a1a1a; stroke: #1a1a1a; stroke-width: 0.7"/>
      </g>
     </g>
     <g id="text_7">
      <!-- 3.0 -->
      <g style="fill: #1a1a1a" transform="translate(407.96231 259.339764) scale(0.1 -0.1)">
       <defs>
        <path id="ArialMT-33" d="M 269 1209 
L 831 1284 
Q 928 806 1161 595 
Q 1394 384 1728 384 
Q 2125 384 2398 659 
Q 2672 934 2672 1341 
Q 2672 1728 2419 1979 
Q 2166 2231 1775 2231 
Q 1616 2231 1378 2169 
L 1441 2663 
Q 1497 2656 1531 2656 
Q 1891 2656 2178 2843 
Q 2466 3031 2466 3422 
Q 2466 3731 2256 3934 
Q 2047 4138 1716 4138 
Q 1388 4138 1169 3931 
Q 950 3725 888 3313 
L 325 3413 
Q 428 3978 793 4289 
Q 1159 4600 1703 4600 
Q 2078 4600 2393 4439 
Q 2709 4278 2876 4000 
Q 3044 3722 3044 3409 
Q 3044 3113 2884 2869 
Q 2725 2625 2413 2481 
Q 2819 2388 3044 2092 
Q 3269 1797 3269 1353 
Q 3269 753 2831 336 
Q 2394 -81 1725 -81 
Q 1122 -81 723 278 
Q 325 638 269 1209 
z
" transform="scale(0.015625)"/>
       </defs>
       <use xlink:href="#ArialMT-33"/>
       <use xlink:href="#ArialMT-2e" transform="translate(55.615234 0)"/>
       <use xlink:href="#ArialMT-30" transform="translate(83.398438 0)"/>
      </g>
     </g>
    </g>
    <g id="xtick_8">
     <g id="line2d_8">
      <g>
       <use xlink:href="#m99bf209007" x="467.282109" y="245.681951" style="fill: #1a1a1a; stroke: #1a1a1a; stroke-width: 0.7"/>
      </g>
     </g>
     <g id="text_8">
      <!-- 3.5 -->
      <g style="fill: #1a1a1a" transform="translate(460.332109 259.339764) scale(0.1 -0.1)">
       <use xlink:href="#ArialMT-33"/>
       <use xlink:href="#ArialMT-2e" transform="translate(55.615234 0)"/>
       <use xlink:href="#ArialMT-35" transform="translate(83.398438 0)"/>
      </g>
     </g>
    </g>
    <g id="xtick_9">
     <g id="line2d_9">
      <g>
       <use xlink:href="#m99bf209007" x="519.651908" y="245.681951" style="fill: #1a1a1a; stroke: #1a1a1a; stroke-width: 0.7"/>
      </g>
     </g>
     <g id="text_9">
      <!-- 4.0 -->
      <g style="fill: #1a1a1a" transform="translate(512.701908 259.339764) scale(0.1 -0.1)">
       <defs>
        <path id="ArialMT-34" d="M 2069 0 
L 2069 1097 
L 81 1097 
L 81 1613 
L 2172 4581 
L 2631 4581 
L 2631 1613 
L 3250 1613 
L 3250 1097 
L 2631 1097 
L 2631 0 
L 2069 0 
z
M 2069 1613 
L 2069 3678 
L 634 1613 
L 2069 1613 
z
" transform="scale(0.015625)"/>
       </defs>
       <use xlink:href="#ArialMT-34"/>
       <use xlink:href="#ArialMT-2e" transform="translate(55.615234 0)"/>
       <use xlink:href="#ArialMT-30" transform="translate(83.398438 0)"/>
      </g>
     </g>
    </g>
    <g id="text_10">
     <!-- time per call (ms) -->
     <g style="fill: #1a1a1a" transform="translate(272.886359 272.606951) scale(0.1 -0.1)">
      <defs>
       <path id="ArialMT-74" d="M 1650 503 
L 1731 6 
Q 1494 -44 1306 -44 
Q 1000 -44 831 53 
Q 663 150 594 308 
Q 525 466 525 972 
L 525 2881 
L 113 2881 
L 113 3319 
L 525 3319 
L 525 4141 
L 1084 4478 
L 1084 3319 
L 1650 3319 
L 1650 2881 
L 1084 2881 
L 1084 941 
Q 1084 700 1114 631 
Q 1144 563 1211 522 
Q 1278 481 1403 481 
Q 1497 481 1650 503 
z
" transform="scale(0.015625)"/>
       <path id="ArialMT-69" d="M 425 3934 
L 425 4581 
L 988 4581 
L 988 3934 
L 425 3934 
z
M 425 0 
L 425 3319 
L 988 3319 
L 988 0 
L 425 0 
z
" transform="scale(0.015625)"/>
       <path id="ArialMT-6d" d="M 422 0 
L 422 3319 
L 925 3319 
L 925 2853 
Q 1081 3097 1340 3245 
Q 1600 3394 1931 3394 
Q 2300 3394 2536 3241 
Q 2772 3088 2869 2813 
Q 3263 3394 3894 3394 
Q 4388 3394 4653 3120 
Q 4919 2847 4919 2278 
L 4919 0 
L 4359 0 
L 4359 2091 
Q 4359 2428 4304 2576 
Q 4250 2725 4106 2815 
Q 3963 2906 3769 2906 
Q 3419 2906 3187 2673 
Q 2956 2441 2956 1928 
L 2956 0 
L 2394 0 
L 2394 2156 
Q 2394 2531 2256 2718 
Q 2119 2906 1806 2906 
Q 1569 2906 1367 2781 
Q 1166 2656 1075 2415 
Q 984 2175 984 1722 
L 984 0 
L 422 0 
z
" transform="scale(0.015625)"/>
       <path id="ArialMT-65" d="M 2694 1069 
L 3275 997 
Q 3138 488 2766 206 
Q 2394 -75 1816 -75 
Q 1088 -75 661 373 
Q 234 822 234 1631 
Q 234 2469 665 2931 
Q 1097 3394 1784 3394 
Q 2450 3394 2872 2941 
Q 3294 2488 3294 1666 
Q 3294 1616 3291 1516 
L 816 1516 
Q 847 969 1125 678 
Q 1403 388 1819 388 
Q 2128 388 2347 550 
Q 2566 713 2694 1069 
z
M 847 1978 
L 2700 1978 
Q 2663 2397 2488 2606 
Q 2219 2931 1791 2931 
Q 1403 2931 1139 2672 
Q 875 2413 847 1978 
z
" transform="scale(0.015625)"/>
       <path id="ArialMT-20" transform="scale(0.015625)"/>
       <path id="ArialMT-70" d="M 422 -1272 
L 422 3319 
L 934 3319 
L 934 2888 
Q 1116 3141 1344 3267 
Q 1572 3394 1897 3394 
Q 2322 3394 2647 3175 
Q 2972 2956 3137 2557 
Q 3303 2159 3303 1684 
Q 3303 1175 3120 767 
Q 2938 359 2589 142 
Q 2241 -75 1856 -75 
Q 1575 -75 1351 44 
Q 1128 163 984 344 
L 984 -1272 
L 422 -1272 
z
M 931 1641 
Q 931 1000 1190 694 
Q 1450 388 1819 388 
Q 2194 388 2461 705 
Q 2728 1022 2728 1688 
Q 2728 2322 2467 2637 
Q 2206 2953 1844 2953 
Q 1484 2953 1207 2617 
Q 931 2281 931 1641 
z
" transform="scale(0.015625)"/>
       <path id="ArialMT-72" d="M 416 0 
L 416 3319 
L 922 3319 
L 922 2816 
Q 1116 3169 1280 3281 
Q 1444 3394 1641 3394 
Q 1925 3394 2219 3213 
L 2025 2691 
Q 1819 2813 1613 2813 
Q 1428 2813 1281 2702 
Q 1134 2591 1072 2394 
Q 978 2094 978 1738 
L 978 0 
L 416 0 
z
" transform="scale(0.015625)"/>
       <path id="ArialMT-63" d="M 2588 1216 
L 3141 1144 
Q 3050 572 2676 248 
Q 2303 -75 1759 -75 
Q 1078 -75 664 370 
Q 250 816 250 1647 
Q 250 2184 428 2587 
Q 606 2991 970 3192 
Q 1334 3394 1763 3394 
Q 2303 3394 2647 3120 
Q 2991 2847 3088 2344 
L 2541 2259 
Q 2463 2594 2264 2762 
Q 2066 2931 1784 2931 
Q 1359 2931 1093 2626 
Q 828 2322 828 1663 
Q 828 994 1084 691 
Q 1341 388 1753 388 
Q 2084 388 2306 591 
Q 2528 794 2588 1216 
z
" transform="scale(0.015625)"/>
       <path id="ArialMT-61" d="M 2588 409 
Q 2275 144 1986 34 
Q 1697 -75 1366 -75 
Q 819 -75 525 192 
Q 231 459 231 875 
Q 231 1119 342 1320 
Q 453 1522 633 1644 
Q 813 1766 1038 1828 
Q 1203 1872 1538 1913 
Q 2219 1994 2541 2106 
Q 2544 2222 2544 2253 
Q 2544 2597 2384 2738 
Q 2169 2928 1744 2928 
Q 1347 2928 1158 2789 
Q 969 2650 878 2297 
L 328 2372 
Q 403 2725 575 2942 
Q 747 3159 1072 3276 
Q 1397 3394 1825 3394 
Q 2250 3394 2515 3294 
Q 2781 3194 2906 3042 
Q 3031 2891 3081 2659 
Q 3109 2516 3109 2141 
L 3109 1391 
Q 3109 606 3145 398 
Q 3181 191 3288 0 
L 2700 0 
Q 2613 175 2588 409 
z
M 2541 1666 
Q 2234 1541 1622 1453 
Q 1275 1403 1131 1340 
Q 988 1278 909 1158 
Q 831 1038 831 891 
Q 831 666 1001 516 
Q 1172 366 1500 366 
Q 1825 366 2078 508 
Q 2331 650 2450 897 
Q 2541 1088 2541 1459 
L 2541 1666 
z
" transform="scale(0.015625)"/>
       <path id="ArialMT-6c" d="M 409 0 
L 409 4581 
L 972 4581 
L 972 0 
L 409 0 
z
" transform="scale(0.015625)"/>
       <path id="ArialMT-28" d="M 1497 -1347 
Q 1031 -759 709 28 
Q 388 816 388 1659 
Q 388 2403 628 3084 
Q 909 3875 1497 4659 
L 1900 4659 
Q 1522 4009 1400 3731 
Q 1209 3300 1100 2831 
Q 966 2247 966 1656 
Q 966 153 1900 -1347 
L 1497 -1347 
z
" transform="scale(0.015625)"/>
       <path id="ArialMT-73" d="M 197 991 
L 753 1078 
Q 800 744 1014 566 
Q 1228 388 1613 388 
Q 2000 388 2187 545 
Q 2375 703 2375 916 
Q 2375 1106 2209 1216 
Q 2094 1291 1634 1406 
Q 1016 1563 777 1677 
Q 538 1791 414 1992 
Q 291 2194 291 2438 
Q 291 2659 392 2848 
Q 494 3038 669 3163 
Q 800 3259 1026 3326 
Q 1253 3394 1513 3394 
Q 1903 3394 2198 3281 
Q 2494 3169 2634 2976 
Q 2775 2784 2828 2463 
L 2278 2388 
Q 2241 2644 2061 2787 
Q 1881 2931 1553 2931 
Q 1166 2931 1000 2803 
Q 834 2675 834 2503 
Q 834 2394 903 2306 
Q 972 2216 1119 2156 
Q 1203 2125 1616 2013 
Q 2213 1853 2448 1751 
Q 2684 1650 2818 1456 
Q 2953 1263 2953 975 
Q 2953 694 2789 445 
Q 2625 197 2315 61 
Q 2006 -75 1616 -75 
Q 969 -75 630 194 
Q 291 463 197 991 
z
" transform="scale(0.015625)"/>
       <path id="ArialMT-29" d="M 791 -1347 
L 388 -1347 
Q 1322 153 1322 1656 
Q 1322 2244 1188 2822 
Q 1081 3291 891 3722 
Q 769 4003 388 4659 
L 791 4659 
Q 1378 3875 1659 3084 
Q 1900 2403 1900 1659 
Q 1900 816 1576 28 
Q 1253 -759 791 -1347 
z
" transform="scale(0.015625)"/>
      </defs>
      <use xlink:href="#ArialMT-74"/>
      <use xlink:href="#ArialMT-69" transform="translate(27.783203 0)"/>
      <use xlink:href="#ArialMT-6d" transform="translate(50 0)"/>
      <use xlink:href="#ArialMT-65" transform="translate(133.300781 0)"/>
      <use xlink:href="#ArialMT-20" transform="translate(188.916016 0)"/>
      <use xlink:href="#ArialMT-70" transform="translate(216.699219 0)"/>
      <use xlink:href="#ArialMT-65" transform="translate(272.314453 0)"/>
      <use xlink:href="#ArialMT-72" transform="translate(327.929688 0)"/>
      <use xlink:href="#ArialMT-20" transform="translate(361.230469 0)"/>
      <use xlink:href="#ArialMT-63" transform="translate(389.013672 0)"/>
      <use xlink:href="#ArialMT-61" transform="translate(439.013672 0)"/>
      <use xlink:href="#ArialMT-6c" transform="translate(494.628906 0)"/>
      <use xlink:href="#ArialMT-6c" transform="translate(516.845703 0)"/>
      <use xlink:href="#ArialMT-20" transform="translate(539.0625 0)"/>
      <use xlink:href="#ArialMT-28" transform="translate(566.845703 0)"/>
      <use xlink:href="#ArialMT-6d" transform="translate(600.146484 0)"/>
      <use xlink:href="#ArialMT-73" transform="translate(683.447266 0)"/>
      <use xlink:href="#ArialMT-29" transform="translate(733.447266 0)"/>
     </g>
    </g>
   </g>
   <g id="matplotlib.axis_2">
    <g id="ytick_1">
     <g id="text_11">
      <!-- s0/b0  D=49  ss=0 -->
      <g style="fill: #1a1a1a" transform="translate(7.2 64.897921) scale(0.085 -0.085)">
       <defs>
        <path id="DejaVuSansMono-73" d="M 3041 3378 
L 3041 2816 
Q 2794 2959 2544 3031 
Q 2294 3103 2034 3103 
Q 1644 3103 1451 2976 
Q 1259 2850 1259 2591 
Q 1259 2356 1403 2240 
Q 1547 2125 2119 2016 
L 2350 1972 
Q 2778 1891 2998 1647 
Q 3219 1403 3219 1013 
Q 3219 494 2850 201 
Q 2481 -91 1825 -91 
Q 1566 -91 1281 -36 
Q 997 19 666 128 
L 666 722 
Q 988 556 1281 473 
Q 1575 391 1838 391 
Q 2219 391 2428 545 
Q 2638 700 2638 978 
Q 2638 1378 1872 1531 
L 1847 1538 
L 1631 1581 
Q 1134 1678 906 1908 
Q 678 2138 678 2534 
Q 678 3038 1018 3311 
Q 1359 3584 1991 3584 
Q 2272 3584 2531 3532 
Q 2791 3481 3041 3378 
z
" transform="scale(0.015625)"/>
        <path id="DejaVuSansMono-30" d="M 1509 2344 
Q 1509 2516 1629 2641 
Q 1750 2766 1919 2766 
Q 2094 2766 2219 2641 
Q 2344 2516 2344 2344 
Q 2344 2169 2220 2047 
Q 2097 1925 1919 1925 
Q 1744 1925 1626 2044 
Q 1509 2163 1509 2344 
z
M 1925 4250 
Q 1484 4250 1267 3775 
Q 1050 3300 1050 2328 
Q 1050 1359 1267 884 
Q 1484 409 1925 409 
Q 2369 409 2586 884 
Q 2803 1359 2803 2328 
Q 2803 3300 2586 3775 
Q 2369 4250 1925 4250 
z
M 1925 4750 
Q 2672 4750 3055 4137 
Q 3438 3525 3438 2328 
Q 3438 1134 3055 521 
Q 2672 -91 1925 -91 
Q 1178 -91 797 521 
Q 416 1134 416 2328 
Q 416 3525 797 4137 
Q 1178 4750 1925 4750 
z
" transform="scale(0.015625)"/>
        <path id="DejaVuSansMono-2f" d="M 2778 4666 
L 3372 4666 
L 916 -594 
L 319 -594 
L 2778 4666 
z
" transform="scale(0.015625)"/>
        <path id="DejaVuSansMono-62" d="M 2869 1747 
Q 2869 2416 2656 2756 
Q 2444 3097 2028 3097 
Q 1609 3097 1393 2755 
Q 1178 2413 1178 1747 
Q 1178 1084 1393 740 
Q 1609 397 2028 397 
Q 2444 397 2656 737 
Q 2869 1078 2869 1747 
z
M 1178 3053 
Q 1316 3309 1558 3446 
Q 1800 3584 2119 3584 
Q 2750 3584 3112 3098 
Q 3475 2613 3475 1759 
Q 3475 894 3111 401 
Q 2747 -91 2113 -91 
Q 1800 -91 1561 45 
Q 1322 181 1178 441 
L 1178 0 
L 603 0 
L 603 4863 
L 1178 4863 
L 1178 3053 
z
" transform="scale(0.015625)"/>
        <path id="DejaVuSansMono-20" transform="scale(0.015625)"/>
        <path id="DejaVuSansMono-44" d="M 1363 519 
Q 2159 519 2475 911 
Q 2791 1303 2791 2328 
Q 2791 3363 2477 3755 
Q 2163 4147 1363 4147 
L 1063 4147 
L 1063 519 
L 1363 519 
z
M 1375 4666 
Q 2444 4666 2950 4097 
Q 3456 3528 3456 2328 
Q 3456 1134 2950 567 
Q 2444 0 1375 0 
L 428 0 
L 428 4666 
L 1375 4666 
z
" transform="scale(0.015625)"/>
        <path id="DejaVuSansMono-3d" d="M 275 1638 
L 3578 1638 
L 3578 1100 
L 275 1100 
L 275 1638 
z
M 275 2906 
L 3578 2906 
L 3578 2375 
L 275 2375 
L 275 2906 
z
" transform="scale(0.015625)"/>
        <path id="DejaVuSansMono-34" d="M 2297 4091 
L 825 1625 
L 2297 1625 
L 2297 4091 
z
M 2194 4666 
L 2925 4666 
L 2925 1625 
L 3547 1625 
L 3547 1113 
L 2925 1113 
L 2925 0 
L 2297 0 
L 2297 1113 
L 319 1113 
L 319 1709 
L 2194 4666 
z
" transform="scale(0.015625)"/>
        <path id="DejaVuSansMono-39" d="M 1863 2069 
Q 2266 2069 2495 2359 
Q 2725 2650 2725 3163 
Q 2725 3675 2495 3965 
Q 2266 4256 1863 4256 
Q 1444 4256 1231 3979 
Q 1019 3703 1019 3163 
Q 1019 2619 1230 2344 
Q 1441 2069 1863 2069 
z
M 738 97 
L 738 678 
Q 934 563 1156 502 
Q 1378 441 1619 441 
Q 2219 441 2526 892 
Q 2834 1344 2834 2222 
Q 2688 1909 2422 1742 
Q 2156 1575 1813 1575 
Q 1138 1575 767 1990 
Q 397 2406 397 3169 
Q 397 3922 776 4336 
Q 1156 4750 1850 4750 
Q 2663 4750 3041 4165 
Q 3419 3581 3419 2328 
Q 3419 1150 2964 529 
Q 2509 -91 1644 -91 
Q 1416 -91 1184 -42 
Q 953 6 738 97 
z
" transform="scale(0.015625)"/>
       </defs>
       <use xlink:href="#DejaVuSansMono-73"/>
       <use xlink:href="#DejaVuSansMono-30" transform="translate(60.205078 0)"/>
       <use xlink:href="#DejaVuSansMono-2f" transform="translate(120.410156 0)"/>
       <use xlink:href="#DejaVuSansMono-62" transform="translate(180.615234 0)"/>
       <use xlink:href="#DejaVuSansMono-30" transform="translate(240.820312 0)"/>
       <use xlink:href="#DejaVuSansMono-20" transform="translate(301.025391 0)"/>
       <use xlink:href="#DejaVuSansMono-20" transform="translate(361.230469 0)"/>
       <use xlink:href="#DejaVuSansMono-44" transform="translate(421.435547 0)"/>
       <use xlink:href="#DejaVuSansMono-3d" transform="translate(481.640625 0)"/>
       <use xlink:href="#DejaVuSansMono-34" transform="translate(541.845703 0)"/>
       <use xlink:href="#DejaVuSansMono-39" transform="translate(602.050781 0)"/>
       <use xlink:href="#DejaVuSansMono-20" transform="translate(662.255859 0)"/>
       <use xlink:href="#DejaVuSansMono-20" transform="translate(722.460938 0)"/>
       <use xlink:href="#DejaVuSansMono-73" transform="translate(782.666016 0)"/>
       <use xlink:href="#DejaVuSansMono-73" transform="translate(842.871094 0)"/>
       <use xlink:href="#DejaVuSansMono-3d" transform="translate(903.076172 0)"/>
       <use xlink:href="#DejaVuSansMono-30" transform="translate(963.28125 0)"/>
      </g>
     </g>
    </g>
    <g id="ytick_2">
     <g id="text_12">
      <!-- s0/b1  D=49  ss=3 -->
      <g style="fill: #1a1a1a" transform="translate(7.2 88.947048) scale(0.085 -0.085)">
       <defs>
        <path id="DejaVuSansMono-31" d="M 844 531 
L 1825 531 
L 1825 4097 
L 769 3859 
L 769 4434 
L 1819 4666 
L 2450 4666 
L 2450 531 
L 3419 531 
L 3419 0 
L 844 0 
L 844 531 
z
" transform="scale(0.015625)"/>
        <path id="DejaVuSansMono-33" d="M 2425 2497 
Q 2884 2375 3128 2064 
Q 3372 1753 3372 1288 
Q 3372 644 2939 276 
Q 2506 -91 1741 -91 
Q 1419 -91 1084 -31 
Q 750 28 428 141 
L 428 769 
Q 747 603 1056 522 
Q 1366 441 1672 441 
Q 2191 441 2469 675 
Q 2747 909 2747 1350 
Q 2747 1756 2469 1995 
Q 2191 2234 1716 2234 
L 1234 2234 
L 1234 2753 
L 1716 2753 
Q 2150 2753 2394 2943 
Q 2638 3134 2638 3475 
Q 2638 3834 2411 4026 
Q 2184 4219 1766 4219 
Q 1488 4219 1191 4156 
Q 894 4094 569 3969 
L 569 4550 
Q 947 4650 1242 4700 
Q 1538 4750 1766 4750 
Q 2447 4750 2855 4408 
Q 3263 4066 3263 3500 
Q 3263 3116 3048 2859 
Q 2834 2603 2425 2497 
z
" transform="scale(0.015625)"/>
       </defs>
       <use xlink:href="#DejaVuSansMono-73"/>
       <use xlink:href="#DejaVuSansMono-30" transform="translate(60.205078 0)"/>
       <use xlink:href="#DejaVuSansMono-2f" transform="translate(120.410156 0)"/>
       <use xlink:href="#DejaVuSansMono-62" transform="translate(180.615234 0)"/>
       <use xlink:href="#DejaVuSansMono-31" transform="translate(240.820312 0)"/>
       <use xlink:href="#DejaVuSansMono-20" transform="translate(301.025391 0)"/>
       <use xlink:href="#DejaVuSansMono-20" transform="translate(361.230469 0)"/>
       <use xlink:href="#DejaVuSansMono-44" transform="translate(421.435547 0)"/>
       <use xlink:href="#DejaVuSansMono-3d" transform="translate(481.640625 0)"/>
       <use xlink:href="#DejaVuSansMono-34" transform="translate(541.845703 0)"/>
       <use xlink:href="#DejaVuSansMono-39" transform="translate(602.050781 0)"/>
       <use xlink:href="#DejaVuSansMono-20" transform="translate(662.255859 0)"/>
       <use xlink:href="#DejaVuSansMono-20" transform="translate(722.460938 0)"/>
       <use xlink:href="#DejaVuSansMono-73" transform="translate(782.666016 0)"/>
       <use xlink:href="#DejaVuSansMono-73" transform="translate(842.871094 0)"/>
       <use xlink:href="#DejaVuSansMono-3d" transform="translate(903.076172 0)"/>
       <use xlink:href="#DejaVuSansMono-33" transform="translate(963.28125 0)"/>
      </g>
     </g>
    </g>
    <g id="ytick_3">
     <g id="text_13">
      <!-- s1/b0  D=28  ss=0 -->
      <g style="fill: #1a1a1a" transform="translate(7.2 112.996175) scale(0.085 -0.085)">
       <defs>
        <path id="DejaVuSansMono-32" d="M 1166 531 
L 3309 531 
L 3309 0 
L 475 0 
L 475 531 
Q 1059 1147 1496 1619 
Q 1934 2091 2100 2284 
Q 2413 2666 2522 2902 
Q 2631 3138 2631 3384 
Q 2631 3775 2401 3997 
Q 2172 4219 1772 4219 
Q 1488 4219 1175 4116 
Q 863 4013 513 3803 
L 513 4441 
Q 834 4594 1145 4672 
Q 1456 4750 1759 4750 
Q 2444 4750 2861 4386 
Q 3278 4022 3278 3431 
Q 3278 3131 3139 2831 
Q 3000 2531 2688 2169 
Q 2513 1966 2180 1606 
Q 1847 1247 1166 531 
z
" transform="scale(0.015625)"/>
        <path id="DejaVuSansMono-38" d="M 1925 2216 
Q 1503 2216 1273 1980 
Q 1044 1744 1044 1313 
Q 1044 881 1276 642 
Q 1509 403 1925 403 
Q 2350 403 2579 639 
Q 2809 875 2809 1313 
Q 2809 1741 2576 1978 
Q 2344 2216 1925 2216 
z
M 1375 2478 
Q 972 2581 745 2862 
Q 519 3144 519 3541 
Q 519 4097 897 4423 
Q 1275 4750 1925 4750 
Q 2578 4750 2956 4423 
Q 3334 4097 3334 3541 
Q 3334 3144 3107 2862 
Q 2881 2581 2478 2478 
Q 2947 2375 3195 2062 
Q 3444 1750 3444 1253 
Q 3444 622 3041 265 
Q 2638 -91 1925 -91 
Q 1213 -91 811 264 
Q 409 619 409 1247 
Q 409 1747 657 2061 
Q 906 2375 1375 2478 
z
M 1147 3481 
Q 1147 3106 1347 2909 
Q 1547 2713 1925 2713 
Q 2306 2713 2506 2909 
Q 2706 3106 2706 3481 
Q 2706 3863 2507 4063 
Q 2309 4263 1925 4263 
Q 1547 4263 1347 4061 
Q 1147 3859 1147 3481 
z
" transform="scale(0.015625)"/>
       </defs>
       <use xlink:href="#DejaVuSansMono-73"/>
       <use xlink:href="#DejaVuSansMono-31" transform="translate(60.205078 0)"/>
       <use xlink:href="#DejaVuSansMono-2f" transform="translate(120.410156 0)"/>
       <use xlink:href="#DejaVuSansMono-62" transform="translate(180.615234 0)"/>
       <use xlink:href="#DejaVuSansMono-30" transform="translate(240.820312 0)"/>
       <use xlink:href="#DejaVuSansMono-20" transform="translate(301.025391 0)"/>
       <use xlink:href="#DejaVuSansMono-20" transform="translate(361.230469 0)"/>
       <use xlink:href="#DejaVuSansMono-44" transform="translate(421.435547 0)"/>
       <use xlink:href="#DejaVuSansMono-3d" transform="translate(481.640625 0)"/>
       <use xlink:href="#DejaVuSansMono-32" transform="translate(541.845703 0)"/>
       <use xlink:href="#DejaVuSansMono-38" transform="translate(602.050781 0)"/>
       <use xlink:href="#DejaVuSansMono-20" transform="translate(662.255859 0)"/>
       <use xlink:href="#DejaVuSansMono-20" transform="translate(722.460938 0)"/>
       <use xlink:href="#DejaVuSansMono-73" transform="translate(782.666016 0)"/>
       <use xlink:href="#DejaVuSansMono-73" transform="translate(842.871094 0)"/>
       <use xlink:href="#DejaVuSansMono-3d" transform="translate(903.076172 0)"/>
       <use xlink:href="#DejaVuSansMono-30" transform="translate(963.28125 0)"/>
      </g>
     </g>
    </g>
    <g id="ytick_4">
     <g id="text_14">
      <!-- s1/b1  D=28  ss=3 -->
      <g style="fill: #1a1a1a" transform="translate(7.2 137.045302) scale(0.085 -0.085)">
       <use xlink:href="#DejaVuSansMono-73"/>
       <use xlink:href="#DejaVuSansMono-31" transform="translate(60.205078 0)"/>
       <use xlink:href="#DejaVuSansMono-2f" transform="translate(120.410156 0)"/>
       <use xlink:href="#DejaVuSansMono-62" transform="translate(180.615234 0)"/>
       <use xlink:href="#DejaVuSansMono-31" transform="translate(240.820312 0)"/>
       <use xlink:href="#DejaVuSansMono-20" transform="translate(301.025391 0)"/>
       <use xlink:href="#DejaVuSansMono-20" transform="translate(361.230469 0)"/>
       <use xlink:href="#DejaVuSansMono-44" transform="translate(421.435547 0)"/>
       <use xlink:href="#DejaVuSansMono-3d" transform="translate(481.640625 0)"/>
       <use xlink:href="#DejaVuSansMono-32" transform="translate(541.845703 0)"/>
       <use xlink:href="#DejaVuSansMono-38" transform="translate(602.050781 0)"/>
       <use xlink:href="#DejaVuSansMono-20" transform="translate(662.255859 0)"/>
       <use xlink:href="#DejaVuSansMono-20" transform="translate(722.460938 0)"/>
       <use xlink:href="#DejaVuSansMono-73" transform="translate(782.666016 0)"/>
       <use xlink:href="#DejaVuSansMono-73" transform="translate(842.871094 0)"/>
       <use xlink:href="#DejaVuSansMono-3d" transform="translate(903.076172 0)"/>
       <use xlink:href="#DejaVuSansMono-33" transform="translate(963.28125 0)"/>
      </g>
     </g>
    </g>
    <g id="ytick_5">
     <g id="text_15">
      <!-- s2/b0  D=14  ss=0 -->
      <g style="fill: #1a1a1a" transform="translate(7.2 161.094429) scale(0.085 -0.085)">
       <use xlink:href="#DejaVuSansMono-73"/>
       <use xlink:href="#DejaVuSansMono-32" transform="translate(60.205078 0)"/>
       <use xlink:href="#DejaVuSansMono-2f" transform="translate(120.410156 0)"/>
       <use xlink:href="#DejaVuSansMono-62" transform="translate(180.615234 0)"/>
       <use xlink:href="#DejaVuSansMono-30" transform="translate(240.820312 0)"/>
       <use xlink:href="#DejaVuSansMono-20" transform="translate(301.025391 0)"/>
       <use xlink:href="#DejaVuSansMono-20" transform="translate(361.230469 0)"/>
       <use xlink:href="#DejaVuSansMono-44" transform="translate(421.435547 0)"/>
       <use xlink:href="#DejaVuSansMono-3d" transform="translate(481.640625 0)"/>
       <use xlink:href="#DejaVuSansMono-31" transform="translate(541.845703 0)"/>
       <use xlink:href="#DejaVuSansMono-34" transform="translate(602.050781 0)"/>
       <use xlink:href="#DejaVuSansMono-20" transform="translate(662.255859 0)"/>
       <use xlink:href="#DejaVuSansMono-20" transform="translate(722.460938 0)"/>
       <use xlink:href="#DejaVuSansMono-73" transform="translate(782.666016 0)"/>
       <use xlink:href="#DejaVuSansMono-73" transform="translate(842.871094 0)"/>
       <use xlink:href="#DejaVuSansMono-3d" transform="translate(903.076172 0)"/>
       <use xlink:href="#DejaVuSansMono-30" transform="translate(963.28125 0)"/>
      </g>
     </g>
    </g>
    <g id="ytick_6">
     <g id="text_16">
      <!-- s2/b1  D=14  ss=3 -->
      <g style="fill: #1a1a1a" transform="translate(7.2 185.143556) scale(0.085 -0.085)">
       <use xlink:href="#DejaVuSansMono-73"/>
       <use xlink:href="#DejaVuSansMono-32" transform="translate(60.205078 0)"/>
       <use xlink:href="#DejaVuSansMono-2f" transform="translate(120.410156 0)"/>
       <use xlink:href="#DejaVuSansMono-62" transform="translate(180.615234 0)"/>
       <use xlink:href="#DejaVuSansMono-31" transform="translate(240.820312 0)"/>
       <use xlink:href="#DejaVuSansMono-20" transform="translate(301.025391 0)"/>
       <use xlink:href="#DejaVuSansMono-20" transform="translate(361.230469 0)"/>
       <use xlink:href="#DejaVuSansMono-44" transform="translate(421.435547 0)"/>
       <use xlink:href="#DejaVuSansMono-3d" transform="translate(481.640625 0)"/>
       <use xlink:href="#DejaVuSansMono-31" transform="translate(541.845703 0)"/>
       <use xlink:href="#DejaVuSansMono-34" transform="translate(602.050781 0)"/>
       <use xlink:href="#DejaVuSansMono-20" transform="translate(662.255859 0)"/>
       <use xlink:href="#DejaVuSansMono-20" transform="translate(722.460938 0)"/>
       <use xlink:href="#DejaVuSansMono-73" transform="translate(782.666016 0)"/>
       <use xlink:href="#DejaVuSansMono-73" transform="translate(842.871094 0)"/>
       <use xlink:href="#DejaVuSansMono-3d" transform="translate(903.076172 0)"/>
       <use xlink:href="#DejaVuSansMono-33" transform="translate(963.28125 0)"/>
      </g>
     </g>
    </g>
    <g id="ytick_7">
     <g id="text_17">
      <!-- s3/b0  D=6  ss=0 -->
      <g style="fill: #1a1a1a" transform="translate(12.317266 209.192683) scale(0.085 -0.085)">
       <defs>
        <path id="DejaVuSansMono-36" d="M 3097 4563 
L 3097 3981 
Q 2900 4097 2678 4158 
Q 2456 4219 2216 4219 
Q 1616 4219 1306 3767 
Q 997 3316 997 2438 
Q 1147 2750 1412 2917 
Q 1678 3084 2022 3084 
Q 2697 3084 3067 2670 
Q 3438 2256 3438 1497 
Q 3438 741 3056 325 
Q 2675 -91 1984 -91 
Q 1172 -91 794 492 
Q 416 1075 416 2328 
Q 416 3509 870 4129 
Q 1325 4750 2188 4750 
Q 2419 4750 2650 4701 
Q 2881 4653 3097 4563 
z
M 1972 2591 
Q 1569 2591 1337 2300 
Q 1106 2009 1106 1497 
Q 1106 984 1337 693 
Q 1569 403 1972 403 
Q 2391 403 2603 679 
Q 2816 956 2816 1497 
Q 2816 2041 2603 2316 
Q 2391 2591 1972 2591 
z
" transform="scale(0.015625)"/>
       </defs>
       <use xlink:href="#DejaVuSansMono-73"/>
       <use xlink:href="#DejaVuSansMono-33" transform="translate(60.205078 0)"/>
       <use xlink:href="#DejaVuSansMono-2f" transform="translate(120.410156 0)"/>
       <use xlink:href="#DejaVuSansMono-62" transform="translate(180.615234 0)"/>
       <use xlink:href="#DejaVuSansMono-30" transform="translate(240.820312 0)"/>
       <use xlink:href="#DejaVuSansMono-20" transform="translate(301.025391 0)"/>
       <use xlink:href="#DejaVuSansMono-20" transform="translate(361.230469 0)"/>
       <use xlink:href="#DejaVuSansMono-44" transform="translate(421.435547 0)"/>
       <use xlink:href="#DejaVuSansMono-3d" transform="translate(481.640625 0)"/>
       <use xlink:href="#DejaVuSansMono-36" transform="translate(541.845703 0)"/>
       <use xlink:href="#DejaVuSansMono-20" transform="translate(602.050781 0)"/>
       <use xlink:href="#DejaVuSansMono-20" transform="translate(662.255859 0)"/>
       <use xlink:href="#DejaVuSansMono-73" transform="translate(722.460938 0)"/>
       <use xlink:href="#DejaVuSansMono-73" transform="translate(782.666016 0)"/>
       <use xlink:href="#DejaVuSansMono-3d" transform="translate(842.871094 0)"/>
       <use xlink:href="#DejaVuSansMono-30" transform="translate(903.076172 0)"/>
      </g>
     </g>
    </g>
    <g id="ytick_8">
     <g id="text_18">
      <!-- s3/b1  D=6  ss=0 -->
      <g style="fill: #1a1a1a" transform="translate(12.317266 233.24181) scale(0.085 -0.085)">
       <use xlink:href="#DejaVuSansMono-73"/>
       <use xlink:href="#DejaVuSansMono-33" transform="translate(60.205078 0)"/>
       <use xlink:href="#DejaVuSansMono-2f" transform="translate(120.410156 0)"/>
       <use xlink:href="#DejaVuSansMono-62" transform="translate(180.615234 0)"/>
       <use xlink:href="#DejaVuSansMono-31" transform="translate(240.820312 0)"/>
       <use xlink:href="#DejaVuSansMono-20" transform="translate(301.025391 0)"/>
       <use xlink:href="#DejaVuSansMono-20" transform="translate(361.230469 0)"/>
       <use xlink:href="#DejaVuSansMono-44" transform="translate(421.435547 0)"/>
       <use xlink:href="#DejaVuSansMono-3d" transform="translate(481.640625 0)"/>
       <use xlink:href="#DejaVuSansMono-36" transform="translate(541.845703 0)"/>
       <use xlink:href="#DejaVuSansMono-20" transform="translate(602.050781 0)"/>
       <use xlink:href="#DejaVuSansMono-20" transform="translate(662.255859 0)"/>
       <use xlink:href="#DejaVuSansMono-73" transform="translate(722.460938 0)"/>
       <use xlink:href="#DejaVuSansMono-73" transform="translate(782.666016 0)"/>
       <use xlink:href="#DejaVuSansMono-3d" transform="translate(842.871094 0)"/>
       <use xlink:href="#DejaVuSansMono-30" transform="translate(903.076172 0)"/>
      </g>
     </g>
    </g>
   </g>
   <g id="patch_19">
    <path d="M 100.693516 245.681951 
L 521.749516 245.681951 
" style="fill: none; stroke: #1a1a1a; stroke-width: 0.7; stroke-linejoin: miter; stroke-linecap: square"/>
   </g>
   <g id="text_19">
    <!-- 28% fusable -->
    <g style="fill: #1a1a1a" transform="translate(328.873072 63.843389) scale(0.085 -0.085)">
     <defs>
      <path id="ArialMT-38" d="M 1131 2484 
Q 781 2613 612 2850 
Q 444 3088 444 3419 
Q 444 3919 803 4259 
Q 1163 4600 1759 4600 
Q 2359 4600 2725 4251 
Q 3091 3903 3091 3403 
Q 3091 3084 2923 2848 
Q 2756 2613 2416 2484 
Q 2838 2347 3058 2040 
Q 3278 1734 3278 1309 
Q 3278 722 2862 322 
Q 2447 -78 1769 -78 
Q 1091 -78 675 323 
Q 259 725 259 1325 
Q 259 1772 486 2073 
Q 713 2375 1131 2484 
z
M 1019 3438 
Q 1019 3113 1228 2906 
Q 1438 2700 1772 2700 
Q 2097 2700 2305 2904 
Q 2513 3109 2513 3406 
Q 2513 3716 2298 3927 
Q 2084 4138 1766 4138 
Q 1444 4138 1231 3931 
Q 1019 3725 1019 3438 
z
M 838 1322 
Q 838 1081 952 856 
Q 1066 631 1291 507 
Q 1516 384 1775 384 
Q 2178 384 2440 643 
Q 2703 903 2703 1303 
Q 2703 1709 2433 1975 
Q 2163 2241 1756 2241 
Q 1359 2241 1098 1978 
Q 838 1716 838 1322 
z
" transform="scale(0.015625)"/>
      <path id="ArialMT-25" d="M 372 3481 
Q 372 3972 619 4315 
Q 866 4659 1334 4659 
Q 1766 4659 2048 4351 
Q 2331 4044 2331 3447 
Q 2331 2866 2045 2552 
Q 1759 2238 1341 2238 
Q 925 2238 648 2547 
Q 372 2856 372 3481 
z
M 1350 4272 
Q 1141 4272 1002 4090 
Q 863 3909 863 3425 
Q 863 2984 1003 2804 
Q 1144 2625 1350 2625 
Q 1563 2625 1702 2806 
Q 1841 2988 1841 3469 
Q 1841 3913 1700 4092 
Q 1559 4272 1350 4272 
z
M 1353 -169 
L 3859 4659 
L 4316 4659 
L 1819 -169 
L 1353 -169 
z
M 3334 1075 
Q 3334 1569 3581 1911 
Q 3828 2253 4300 2253 
Q 4731 2253 5014 1945 
Q 5297 1638 5297 1041 
Q 5297 459 5011 145 
Q 4725 -169 4303 -169 
Q 3888 -169 3611 142 
Q 3334 453 3334 1075 
z
M 4316 1866 
Q 4103 1866 3964 1684 
Q 3825 1503 3825 1019 
Q 3825 581 3965 400 
Q 4106 219 4313 219 
Q 4528 219 4667 400 
Q 4806 581 4806 1063 
Q 4806 1506 4665 1686 
Q 4525 1866 4316 1866 
z
" transform="scale(0.015625)"/>
      <path id="ArialMT-66" d="M 556 0 
L 556 2881 
L 59 2881 
L 59 3319 
L 556 3319 
L 556 3672 
Q 556 4006 616 4169 
Q 697 4388 901 4523 
Q 1106 4659 1475 4659 
Q 1713 4659 2000 4603 
L 1916 4113 
Q 1741 4144 1584 4144 
Q 1328 4144 1222 4034 
Q 1116 3925 1116 3625 
L 1116 3319 
L 1763 3319 
L 1763 2881 
L 1116 2881 
L 1116 0 
L 556 0 
z
" transform="scale(0.015625)"/>
      <path id="ArialMT-75" d="M 2597 0 
L 2597 488 
Q 2209 -75 1544 -75 
Q 1250 -75 995 37 
Q 741 150 617 320 
Q 494 491 444 738 
Q 409 903 409 1263 
L 409 3319 
L 972 3319 
L 972 1478 
Q 972 1038 1006 884 
Q 1059 663 1231 536 
Q 1403 409 1656 409 
Q 1909 409 2131 539 
Q 2353 669 2445 892 
Q 2538 1116 2538 1541 
L 2538 3319 
L 3100 3319 
L 3100 0 
L 2597 0 
z
" transform="scale(0.015625)"/>
      <path id="ArialMT-62" d="M 941 0 
L 419 0 
L 419 4581 
L 981 4581 
L 981 2947 
Q 1338 3394 1891 3394 
Q 2197 3394 2470 3270 
Q 2744 3147 2920 2923 
Q 3097 2700 3197 2384 
Q 3297 2069 3297 1709 
Q 3297 856 2875 390 
Q 2453 -75 1863 -75 
Q 1275 -75 941 416 
L 941 0 
z
M 934 1684 
Q 934 1088 1097 822 
Q 1363 388 1816 388 
Q 2184 388 2453 708 
Q 2722 1028 2722 1663 
Q 2722 2313 2464 2622 
Q 2206 2931 1841 2931 
Q 1472 2931 1203 2611 
Q 934 2291 934 1684 
z
" transform="scale(0.015625)"/>
     </defs>
     <use xlink:href="#ArialMT-32"/>
     <use xlink:href="#ArialMT-38" transform="translate(55.615234 0)"/>
     <use xlink:href="#ArialMT-25" transform="translate(111.230469 0)"/>
     <use xlink:href="#ArialMT-20" transform="translate(200.146484 0)"/>
     <use xlink:href="#ArialMT-66" transform="translate(227.929688 0)"/>
     <use xlink:href="#ArialMT-75" transform="translate(255.712891 0)"/>
     <use xlink:href="#ArialMT-73" transform="translate(311.328125 0)"/>
     <use xlink:href="#ArialMT-61" transform="translate(361.328125 0)"/>
     <use xlink:href="#ArialMT-62" transform="translate(416.943359 0)"/>
     <use xlink:href="#ArialMT-6c" transform="translate(472.558594 0)"/>
     <use xlink:href="#ArialMT-65" transform="translate(494.775391 0)"/>
    </g>
   </g>
   <g id="text_20">
    <!-- 53% fusable -->
    <g style="fill: #1a1a1a" transform="translate(449.272663 87.892516) scale(0.085 -0.085)">
     <use xlink:href="#ArialMT-35"/>
     <use xlink:href="#ArialMT-33" transform="translate(55.615234 0)"/>
     <use xlink:href="#ArialMT-25" transform="translate(111.230469 0)"/>
     <use xlink:href="#ArialMT-20" transform="translate(200.146484 0)"/>
     <use xlink:href="#ArialMT-66" transform="translate(227.929688 0)"/>
     <use xlink:href="#ArialMT-75" transform="translate(255.712891 0)"/>
     <use xlink:href="#ArialMT-73" transform="translate(311.328125 0)"/>
     <use xlink:href="#ArialMT-61" transform="translate(361.328125 0)"/>
     <use xlink:href="#ArialMT-62" transform="translate(416.943359 0)"/>
     <use xlink:href="#ArialMT-6c" transform="translate(472.558594 0)"/>
     <use xlink:href="#ArialMT-65" transform="translate(494.775391 0)"/>
    </g>
   </g>
   <g id="text_21">
    <!-- 17% fusable -->
    <g style="fill: #1a1a1a" transform="translate(180.055364 111.941644) scale(0.085 -0.085)">
     <defs>
      <path id="ArialMT-37" d="M 303 3981 
L 303 4522 
L 3269 4522 
L 3269 4084 
Q 2831 3619 2401 2847 
Q 1972 2075 1738 1259 
Q 1569 684 1522 0 
L 944 0 
Q 953 541 1156 1306 
Q 1359 2072 1739 2783 
Q 2119 3494 2547 3981 
L 303 3981 
z
" transform="scale(0.015625)"/>
     </defs>
     <use xlink:href="#ArialMT-31"/>
     <use xlink:href="#ArialMT-37" transform="translate(55.615234 0)"/>
     <use xlink:href="#ArialMT-25" transform="translate(111.230469 0)"/>
     <use xlink:href="#ArialMT-20" transform="translate(200.146484 0)"/>
     <use xlink:href="#ArialMT-66" transform="translate(227.929688 0)"/>
     <use xlink:href="#ArialMT-75" transform="translate(255.712891 0)"/>
     <use xlink:href="#ArialMT-73" transform="translate(311.328125 0)"/>
     <use xlink:href="#ArialMT-61" transform="translate(361.328125 0)"/>
     <use xlink:href="#ArialMT-62" transform="translate(416.943359 0)"/>
     <use xlink:href="#ArialMT-6c" transform="translate(472.558594 0)"/>
     <use xlink:href="#ArialMT-65" transform="translate(494.775391 0)"/>
    </g>
   </g>
   <g id="text_22">
    <!-- 46% fusable -->
    <g style="fill: #1a1a1a" transform="translate(220.510991 135.990771) scale(0.085 -0.085)">
     <defs>
      <path id="ArialMT-36" d="M 3184 3459 
L 2625 3416 
Q 2550 3747 2413 3897 
Q 2184 4138 1850 4138 
Q 1581 4138 1378 3988 
Q 1113 3794 959 3422 
Q 806 3050 800 2363 
Q 1003 2672 1297 2822 
Q 1591 2972 1913 2972 
Q 2475 2972 2870 2558 
Q 3266 2144 3266 1488 
Q 3266 1056 3080 686 
Q 2894 316 2569 119 
Q 2244 -78 1831 -78 
Q 1128 -78 684 439 
Q 241 956 241 2144 
Q 241 3472 731 4075 
Q 1159 4600 1884 4600 
Q 2425 4600 2770 4297 
Q 3116 3994 3184 3459 
z
M 888 1484 
Q 888 1194 1011 928 
Q 1134 663 1356 523 
Q 1578 384 1822 384 
Q 2178 384 2434 671 
Q 2691 959 2691 1453 
Q 2691 1928 2437 2201 
Q 2184 2475 1800 2475 
Q 1419 2475 1153 2201 
Q 888 1928 888 1484 
z
" transform="scale(0.015625)"/>
     </defs>
     <use xlink:href="#ArialMT-34"/>
     <use xlink:href="#ArialMT-36" transform="translate(55.615234 0)"/>
     <use xlink:href="#ArialMT-25" transform="translate(111.230469 0)"/>
     <use xlink:href="#ArialMT-20" transform="translate(200.146484 0)"/>
     <use xlink:href="#ArialMT-66" transform="translate(227.929688 0)"/>
     <use xlink:href="#ArialMT-75" transform="translate(255.712891 0)"/>
     <use xlink:href="#ArialMT-73" transform="translate(311.328125 0)"/>
     <use xlink:href="#ArialMT-61" transform="translate(361.328125 0)"/>
     <use xlink:href="#ArialMT-62" transform="translate(416.943359 0)"/>
     <use xlink:href="#ArialMT-6c" transform="translate(472.558594 0)"/>
     <use xlink:href="#ArialMT-65" transform="translate(494.775391 0)"/>
    </g>
   </g>
   <g id="text_23">
    <!-- 21% fusable -->
    <g style="fill: #1a1a1a" transform="translate(125.914878 160.039898) scale(0.085 -0.085)">
     <use xlink:href="#ArialMT-32"/>
     <use xlink:href="#ArialMT-31" transform="translate(55.615234 0)"/>
     <use xlink:href="#ArialMT-25" transform="translate(111.230469 0)"/>
     <use xlink:href="#ArialMT-20" transform="translate(200.146484 0)"/>
     <use xlink:href="#ArialMT-66" transform="translate(227.929688 0)"/>
     <use xlink:href="#ArialMT-75" transform="translate(255.712891 0)"/>
     <use xlink:href="#ArialMT-73" transform="translate(311.328125 0)"/>
     <use xlink:href="#ArialMT-61" transform="translate(361.328125 0)"/>
     <use xlink:href="#ArialMT-62" transform="translate(416.943359 0)"/>
     <use xlink:href="#ArialMT-6c" transform="translate(472.558594 0)"/>
     <use xlink:href="#ArialMT-65" transform="translate(494.775391 0)"/>
    </g>
   </g>
   <g id="text_24">
    <!-- 63% fusable -->
    <g style="fill: #1a1a1a" transform="translate(150.091458 184.089025) scale(0.085 -0.085)">
     <use xlink:href="#ArialMT-36"/>
     <use xlink:href="#ArialMT-33" transform="translate(55.615234 0)"/>
     <use xlink:href="#ArialMT-25" transform="translate(111.230469 0)"/>
     <use xlink:href="#ArialMT-20" transform="translate(200.146484 0)"/>
     <use xlink:href="#ArialMT-66" transform="translate(227.929688 0)"/>
     <use xlink:href="#ArialMT-75" transform="translate(255.712891 0)"/>
     <use xlink:href="#ArialMT-73" transform="translate(311.328125 0)"/>
     <use xlink:href="#ArialMT-61" transform="translate(361.328125 0)"/>
     <use xlink:href="#ArialMT-62" transform="translate(416.943359 0)"/>
     <use xlink:href="#ArialMT-6c" transform="translate(472.558594 0)"/>
     <use xlink:href="#ArialMT-65" transform="translate(494.775391 0)"/>
    </g>
   </g>
   <g id="text_25">
    <!-- 44% fusable -->
    <g style="fill: #1a1a1a" transform="translate(111.421599 208.138152) scale(0.085 -0.085)">
     <use xlink:href="#ArialMT-34"/>
     <use xlink:href="#ArialMT-34" transform="translate(55.615234 0)"/>
     <use xlink:href="#ArialMT-25" transform="translate(111.230469 0)"/>
     <use xlink:href="#ArialMT-20" transform="translate(200.146484 0)"/>
     <use xlink:href="#ArialMT-66" transform="translate(227.929688 0)"/>
     <use xlink:href="#ArialMT-75" transform="translate(255.712891 0)"/>
     <use xlink:href="#ArialMT-73" transform="translate(311.328125 0)"/>
     <use xlink:href="#ArialMT-61" transform="translate(361.328125 0)"/>
     <use xlink:href="#ArialMT-62" transform="translate(416.943359 0)"/>
     <use xlink:href="#ArialMT-6c" transform="translate(472.558594 0)"/>
     <use xlink:href="#ArialMT-65" transform="translate(494.775391 0)"/>
    </g>
   </g>
   <g id="text_26">
    <!-- 62% fusable -->
    <g style="fill: #1a1a1a" transform="translate(109.693814 232.187279) scale(0.085 -0.085)">
     <use xlink:href="#ArialMT-36"/>
     <use xlink:href="#ArialMT-32" transform="translate(55.615234 0)"/>
     <use xlink:href="#ArialMT-25" transform="translate(111.230469 0)"/>
     <use xlink:href="#ArialMT-20" transform="translate(200.146484 0)"/>
     <use xlink:href="#ArialMT-66" transform="translate(227.929688 0)"/>
     <use xlink:href="#ArialMT-75" transform="translate(255.712891 0)"/>
     <use xlink:href="#ArialMT-73" transform="translate(311.328125 0)"/>
     <use xlink:href="#ArialMT-61" transform="translate(361.328125 0)"/>
     <use xlink:href="#ArialMT-62" transform="translate(416.943359 0)"/>
     <use xlink:href="#ArialMT-6c" transform="translate(472.558594 0)"/>
     <use xlink:href="#ArialMT-65" transform="translate(494.775391 0)"/>
    </g>
   </g>
   <g id="text_27">
    <!-- Where eager Swin UNETR spends time, by block -->
    <g style="fill: #1a1a1a" transform="translate(100.693516 15.571641) scale(0.115 -0.115)">
     <defs>
      <path id="ArialMT-57" d="M 1294 0 
L 78 4581 
L 700 4581 
L 1397 1578 
Q 1509 1106 1591 641 
Q 1766 1375 1797 1488 
L 2669 4581 
L 3400 4581 
L 4056 2263 
Q 4303 1400 4413 641 
Q 4500 1075 4641 1638 
L 5359 4581 
L 5969 4581 
L 4713 0 
L 4128 0 
L 3163 3491 
Q 3041 3928 3019 4028 
Q 2947 3713 2884 3491 
L 1913 0 
L 1294 0 
z
" transform="scale(0.015625)"/>
      <path id="ArialMT-68" d="M 422 0 
L 422 4581 
L 984 4581 
L 984 2938 
Q 1378 3394 1978 3394 
Q 2347 3394 2619 3248 
Q 2891 3103 3008 2847 
Q 3125 2591 3125 2103 
L 3125 0 
L 2563 0 
L 2563 2103 
Q 2563 2525 2380 2717 
Q 2197 2909 1863 2909 
Q 1613 2909 1392 2779 
Q 1172 2650 1078 2428 
Q 984 2206 984 1816 
L 984 0 
L 422 0 
z
" transform="scale(0.015625)"/>
      <path id="ArialMT-67" d="M 319 -275 
L 866 -356 
Q 900 -609 1056 -725 
Q 1266 -881 1628 -881 
Q 2019 -881 2231 -725 
Q 2444 -569 2519 -288 
Q 2563 -116 2559 434 
Q 2191 0 1641 0 
Q 956 0 581 494 
Q 206 988 206 1678 
Q 206 2153 378 2554 
Q 550 2956 876 3175 
Q 1203 3394 1644 3394 
Q 2231 3394 2613 2919 
L 2613 3319 
L 3131 3319 
L 3131 450 
Q 3131 -325 2973 -648 
Q 2816 -972 2473 -1159 
Q 2131 -1347 1631 -1347 
Q 1038 -1347 672 -1080 
Q 306 -813 319 -275 
z
M 784 1719 
Q 784 1066 1043 766 
Q 1303 466 1694 466 
Q 2081 466 2343 764 
Q 2606 1063 2606 1700 
Q 2606 2309 2336 2618 
Q 2066 2928 1684 2928 
Q 1309 2928 1046 2623 
Q 784 2319 784 1719 
z
" transform="scale(0.015625)"/>
      <path id="ArialMT-53" d="M 288 1472 
L 859 1522 
Q 900 1178 1048 958 
Q 1197 738 1509 602 
Q 1822 466 2213 466 
Q 2559 466 2825 569 
Q 3091 672 3220 851 
Q 3350 1031 3350 1244 
Q 3350 1459 3225 1620 
Q 3100 1781 2813 1891 
Q 2628 1963 1997 2114 
Q 1366 2266 1113 2400 
Q 784 2572 623 2826 
Q 463 3081 463 3397 
Q 463 3744 659 4045 
Q 856 4347 1234 4503 
Q 1613 4659 2075 4659 
Q 2584 4659 2973 4495 
Q 3363 4331 3572 4012 
Q 3781 3694 3797 3291 
L 3216 3247 
Q 3169 3681 2898 3903 
Q 2628 4125 2100 4125 
Q 1550 4125 1298 3923 
Q 1047 3722 1047 3438 
Q 1047 3191 1225 3031 
Q 1400 2872 2139 2705 
Q 2878 2538 3153 2413 
Q 3553 2228 3743 1945 
Q 3934 1663 3934 1294 
Q 3934 928 3725 604 
Q 3516 281 3123 101 
Q 2731 -78 2241 -78 
Q 1619 -78 1198 103 
Q 778 284 539 648 
Q 300 1013 288 1472 
z
" transform="scale(0.015625)"/>
      <path id="ArialMT-77" d="M 1034 0 
L 19 3319 
L 600 3319 
L 1128 1403 
L 1325 691 
Q 1338 744 1497 1375 
L 2025 3319 
L 2603 3319 
L 3100 1394 
L 3266 759 
L 3456 1400 
L 4025 3319 
L 4572 3319 
L 3534 0 
L 2950 0 
L 2422 1988 
L 2294 2553 
L 1622 0 
L 1034 0 
z
" transform="scale(0.015625)"/>
      <path id="ArialMT-6e" d="M 422 0 
L 422 3319 
L 928 3319 
L 928 2847 
Q 1294 3394 1984 3394 
Q 2284 3394 2536 3286 
Q 2788 3178 2913 3003 
Q 3038 2828 3088 2588 
Q 3119 2431 3119 2041 
L 3119 0 
L 2556 0 
L 2556 2019 
Q 2556 2363 2490 2533 
Q 2425 2703 2258 2804 
Q 2091 2906 1866 2906 
Q 1506 2906 1245 2678 
Q 984 2450 984 1813 
L 984 0 
L 422 0 
z
" transform="scale(0.015625)"/>
      <path id="ArialMT-55" d="M 3500 4581 
L 4106 4581 
L 4106 1934 
Q 4106 1244 3950 837 
Q 3794 431 3386 176 
Q 2978 -78 2316 -78 
Q 1672 -78 1262 144 
Q 853 366 678 786 
Q 503 1206 503 1934 
L 503 4581 
L 1109 4581 
L 1109 1938 
Q 1109 1341 1220 1058 
Q 1331 775 1601 622 
Q 1872 469 2263 469 
Q 2931 469 3215 772 
Q 3500 1075 3500 1938 
L 3500 4581 
z
" transform="scale(0.015625)"/>
      <path id="ArialMT-4e" d="M 488 0 
L 488 4581 
L 1109 4581 
L 3516 984 
L 3516 4581 
L 4097 4581 
L 4097 0 
L 3475 0 
L 1069 3600 
L 1069 0 
L 488 0 
z
" transform="scale(0.015625)"/>
      <path id="ArialMT-45" d="M 506 0 
L 506 4581 
L 3819 4581 
L 3819 4041 
L 1113 4041 
L 1113 2638 
L 3647 2638 
L 3647 2100 
L 1113 2100 
L 1113 541 
L 3925 541 
L 3925 0 
L 506 0 
z
" transform="scale(0.015625)"/>
      <path id="ArialMT-54" d="M 1659 0 
L 1659 4041 
L 150 4041 
L 150 4581 
L 3781 4581 
L 3781 4041 
L 2266 4041 
L 2266 0 
L 1659 0 
z
" transform="scale(0.015625)"/>
      <path id="ArialMT-52" d="M 503 0 
L 503 4581 
L 2534 4581 
Q 3147 4581 3465 4457 
Q 3784 4334 3975 4021 
Q 4166 3709 4166 3331 
Q 4166 2844 3850 2509 
Q 3534 2175 2875 2084 
Q 3116 1969 3241 1856 
Q 3506 1613 3744 1247 
L 4541 0 
L 3778 0 
L 3172 953 
Q 2906 1366 2734 1584 
Q 2563 1803 2427 1890 
Q 2291 1978 2150 2013 
Q 2047 2034 1813 2034 
L 1109 2034 
L 1109 0 
L 503 0 
z
M 1109 2559 
L 2413 2559 
Q 2828 2559 3062 2645 
Q 3297 2731 3419 2920 
Q 3541 3109 3541 3331 
Q 3541 3656 3305 3865 
Q 3069 4075 2559 4075 
L 1109 4075 
L 1109 2559 
z
" transform="scale(0.015625)"/>
      <path id="ArialMT-64" d="M 2575 0 
L 2575 419 
Q 2259 -75 1647 -75 
Q 1250 -75 917 144 
Q 584 363 401 755 
Q 219 1147 219 1656 
Q 219 2153 384 2558 
Q 550 2963 881 3178 
Q 1213 3394 1622 3394 
Q 1922 3394 2156 3267 
Q 2391 3141 2538 2938 
L 2538 4581 
L 3097 4581 
L 3097 0 
L 2575 0 
z
M 797 1656 
Q 797 1019 1065 703 
Q 1334 388 1700 388 
Q 2069 388 2326 689 
Q 2584 991 2584 1609 
Q 2584 2291 2321 2609 
Q 2059 2928 1675 2928 
Q 1300 2928 1048 2622 
Q 797 2316 797 1656 
z
" transform="scale(0.015625)"/>
      <path id="ArialMT-2c" d="M 569 0 
L 569 641 
L 1209 641 
L 1209 0 
Q 1209 -353 1084 -570 
Q 959 -788 688 -906 
L 531 -666 
Q 709 -588 793 -436 
Q 878 -284 888 0 
L 569 0 
z
" transform="scale(0.015625)"/>
      <path id="ArialMT-79" d="M 397 -1278 
L 334 -750 
Q 519 -800 656 -800 
Q 844 -800 956 -737 
Q 1069 -675 1141 -563 
Q 1194 -478 1313 -144 
Q 1328 -97 1363 -6 
L 103 3319 
L 709 3319 
L 1400 1397 
Q 1534 1031 1641 628 
Q 1738 1016 1872 1384 
L 2581 3319 
L 3144 3319 
L 1881 -56 
Q 1678 -603 1566 -809 
Q 1416 -1088 1222 -1217 
Q 1028 -1347 759 -1347 
Q 597 -1347 397 -1278 
z
" transform="scale(0.015625)"/>
      <path id="ArialMT-6f" d="M 213 1659 
Q 213 2581 725 3025 
Q 1153 3394 1769 3394 
Q 2453 3394 2887 2945 
Q 3322 2497 3322 1706 
Q 3322 1066 3130 698 
Q 2938 331 2570 128 
Q 2203 -75 1769 -75 
Q 1072 -75 642 372 
Q 213 819 213 1659 
z
M 791 1659 
Q 791 1022 1069 705 
Q 1347 388 1769 388 
Q 2188 388 2466 706 
Q 2744 1025 2744 1678 
Q 2744 2294 2464 2611 
Q 2184 2928 1769 2928 
Q 1347 2928 1069 2612 
Q 791 2297 791 1659 
z
" transform="scale(0.015625)"/>
      <path id="ArialMT-6b" d="M 425 0 
L 425 4581 
L 988 4581 
L 988 1969 
L 2319 3319 
L 3047 3319 
L 1778 2088 
L 3175 0 
L 2481 0 
L 1384 1697 
L 988 1316 
L 988 0 
L 425 0 
z
" transform="scale(0.015625)"/>
     </defs>
     <use xlink:href="#ArialMT-57"/>
     <use xlink:href="#ArialMT-68" transform="translate(94.384766 0)"/>
     <use xlink:href="#ArialMT-65" transform="translate(150 0)"/>
     <use xlink:href="#ArialMT-72" transform="translate(205.615234 0)"/>
     <use xlink:href="#ArialMT-65" transform="translate(238.916016 0)"/>
     <use xlink:href="#ArialMT-20" transform="translate(294.53125 0)"/>
     <use xlink:href="#ArialMT-65" transform="translate(322.314453 0)"/>
     <use xlink:href="#ArialMT-61" transform="translate(377.929688 0)"/>
     <use xlink:href="#ArialMT-67" transform="translate(433.544922 0)"/>
     <use xlink:href="#ArialMT-65" transform="translate(489.160156 0)"/>
     <use xlink:href="#ArialMT-72" transform="translate(544.775391 0)"/>
     <use xlink:href="#ArialMT-20" transform="translate(578.076172 0)"/>
     <use xlink:href="#ArialMT-53" transform="translate(605.859375 0)"/>
     <use xlink:href="#ArialMT-77" transform="translate(672.558594 0)"/>
     <use xlink:href="#ArialMT-69" transform="translate(744.775391 0)"/>
     <use xlink:href="#ArialMT-6e" transform="translate(766.992188 0)"/>
     <use xlink:href="#ArialMT-20" transform="translate(822.607422 0)"/>
     <use xlink:href="#ArialMT-55" transform="translate(850.390625 0)"/>
     <use xlink:href="#ArialMT-4e" transform="translate(922.607422 0)"/>
     <use xlink:href="#ArialMT-45" transform="translate(994.824219 0)"/>
     <use xlink:href="#ArialMT-54" transform="translate(1061.523438 0)"/>
     <use xlink:href="#ArialMT-52" transform="translate(1122.607422 0)"/>
     <use xlink:href="#ArialMT-20" transform="translate(1194.824219 0)"/>
     <use xlink:href="#ArialMT-73" transform="translate(1222.607422 0)"/>
     <use xlink:href="#ArialMT-70" transform="translate(1272.607422 0)"/>
     <use xlink:href="#ArialMT-65" transform="translate(1328.222656 0)"/>
     <use xlink:href="#ArialMT-6e" transform="translate(1383.837891 0)"/>
     <use xlink:href="#ArialMT-64" transform="translate(1439.453125 0)"/>
     <use xlink:href="#ArialMT-73" transform="translate(1495.068359 0)"/>
     <use xlink:href="#ArialMT-20" transform="translate(1545.068359 0)"/>
     <use xlink:href="#ArialMT-74" transform="translate(1572.851562 0)"/>
     <use xlink:href="#ArialMT-69" transform="translate(1600.634766 0)"/>
     <use xlink:href="#ArialMT-6d" transform="translate(1622.851562 0)"/>
     <use xlink:href="#ArialMT-65" transform="translate(1706.152344 0)"/>
     <use xlink:href="#ArialMT-2c" transform="translate(1761.767578 0)"/>
     <use xlink:href="#ArialMT-20" transform="translate(1789.550781 0)"/>
     <use xlink:href="#ArialMT-62" transform="translate(1817.333984 0)"/>
     <use xlink:href="#ArialMT-79" transform="translate(1872.949219 0)"/>
     <use xlink:href="#ArialMT-20" transform="translate(1922.949219 0)"/>
     <use xlink:href="#ArialMT-62" transform="translate(1950.732422 0)"/>
     <use xlink:href="#ArialMT-6c" transform="translate(2006.347656 0)"/>
     <use xlink:href="#ArialMT-6f" transform="translate(2028.564453 0)"/>
     <use xlink:href="#ArialMT-63" transform="translate(2084.179688 0)"/>
     <use xlink:href="#ArialMT-6b" transform="translate(2134.179688 0)"/>
    </g>
   </g>
   <g id="text_28">
    <!-- grey = window attention probe; orange = fusable mechanics (roll, partition, reverse, mask) -->
    <g style="fill: #9a9a9a" transform="translate(100.693516 36.070612) scale(0.09 -0.09)">
     <defs>
      <path id="ArialMT-3d" d="M 3381 2694 
L 356 2694 
L 356 3219 
L 3381 3219 
L 3381 2694 
z
M 3381 1303 
L 356 1303 
L 356 1828 
L 3381 1828 
L 3381 1303 
z
" transform="scale(0.015625)"/>
      <path id="ArialMT-3b" d="M 569 2678 
L 569 3319 
L 1209 3319 
L 1209 2678 
L 569 2678 
z
M 569 0 
L 569 641 
L 1209 641 
L 1209 0 
Q 1209 -353 1084 -570 
Q 959 -788 688 -906 
L 531 -666 
Q 709 -588 793 -436 
Q 878 -284 888 0 
L 569 0 
z
" transform="scale(0.015625)"/>
      <path id="ArialMT-76" d="M 1344 0 
L 81 3319 
L 675 3319 
L 1388 1331 
Q 1503 1009 1600 663 
Q 1675 925 1809 1294 
L 2547 3319 
L 3125 3319 
L 1869 0 
L 1344 0 
z
" transform="scale(0.015625)"/>
     </defs>
     <use xlink:href="#ArialMT-67"/>
     <use xlink:href="#ArialMT-72" transform="translate(55.615234 0)"/>
     <use xlink:href="#ArialMT-65" transform="translate(88.916016 0)"/>
     <use xlink:href="#ArialMT-79" transform="translate(144.53125 0)"/>
     <use xlink:href="#ArialMT-20" transform="translate(194.53125 0)"/>
     <use xlink:href="#ArialMT-3d" transform="translate(222.314453 0)"/>
     <use xlink:href="#ArialMT-20" transform="translate(280.712891 0)"/>
     <use xlink:href="#ArialMT-77" transform="translate(308.496094 0)"/>
     <use xlink:href="#ArialMT-69" transform="translate(380.712891 0)"/>
     <use xlink:href="#ArialMT-6e" transform="translate(402.929688 0)"/>
     <use xlink:href="#ArialMT-64" transform="translate(458.544922 0)"/>
     <use xlink:href="#ArialMT-6f" transform="translate(514.160156 0)"/>
     <use xlink:href="#ArialMT-77" transform="translate(569.775391 0)"/>
     <use xlink:href="#ArialMT-20" transform="translate(641.992188 0)"/>
     <use xlink:href="#ArialMT-61" transform="translate(669.775391 0)"/>
     <use xlink:href="#ArialMT-74" transform="translate(725.390625 0)"/>
     <use xlink:href="#ArialMT-74" transform="translate(753.173828 0)"/>
     <use xlink:href="#ArialMT-65" transform="translate(780.957031 0)"/>
     <use xlink:href="#ArialMT-6e" transform="translate(836.572266 0)"/>
     <use xlink:href="#ArialMT-74" transform="translate(892.1875 0)"/>
     <use xlink:href="#ArialMT-69" transform="translate(919.970703 0)"/>
     <use xlink:href="#ArialMT-6f" transform="translate(942.1875 0)"/>
     <use xlink:href="#ArialMT-6e" transform="translate(997.802734 0)"/>
     <use xlink:href="#ArialMT-20" transform="translate(1053.417969 0)"/>
     <use xlink:href="#ArialMT-70" transform="translate(1081.201172 0)"/>
     <use xlink:href="#ArialMT-72" transform="translate(1136.816406 0)"/>
     <use xlink:href="#ArialMT-6f" transform="translate(1170.117188 0)"/>
     <use xlink:href="#ArialMT-62" transform="translate(1225.732422 0)"/>
     <use xlink:href="#ArialMT-65" transform="translate(1281.347656 0)"/>
     <use xlink:href="#ArialMT-3b" transform="translate(1336.962891 0)"/>
     <use xlink:href="#ArialMT-20" transform="translate(1364.746094 0)"/>
     <use xlink:href="#ArialMT-6f" transform="translate(1392.529297 0)"/>
     <use xlink:href="#ArialMT-72" transform="translate(1448.144531 0)"/>
     <use xlink:href="#ArialMT-61" transform="translate(1481.445312 0)"/>
     <use xlink:href="#ArialMT-6e" transform="translate(1537.060547 0)"/>
     <use xlink:href="#ArialMT-67" transform="translate(1592.675781 0)"/>
     <use xlink:href="#ArialMT-65" transform="translate(1648.291016 0)"/>
     <use xlink:href="#ArialMT-20" transform="translate(1703.90625 0)"/>
     <use xlink:href="#ArialMT-3d" transform="translate(1731.689453 0)"/>
     <use xlink:href="#ArialMT-20" transform="translate(1790.087891 0)"/>
     <use xlink:href="#ArialMT-66" transform="translate(1817.871094 0)"/>
     <use xlink:href="#ArialMT-75" transform="translate(1845.654297 0)"/>
     <use xlink:href="#ArialMT-73" transform="translate(1901.269531 0)"/>
     <use xlink:href="#ArialMT-61" transform="translate(1951.269531 0)"/>
     <use xlink:href="#ArialMT-62" transform="translate(2006.884766 0)"/>
     <use xlink:href="#ArialMT-6c" transform="translate(2062.5 0)"/>
     <use xlink:href="#ArialMT-65" transform="translate(2084.716797 0)"/>
     <use xlink:href="#ArialMT-20" transform="translate(2140.332031 0)"/>
     <use xlink:href="#ArialMT-6d" transform="translate(2168.115234 0)"/>
     <use xlink:href="#ArialMT-65" transform="translate(2251.416016 0)"/>
     <use xlink:href="#ArialMT-63" transform="translate(2307.03125 0)"/>
     <use xlink:href="#ArialMT-68" transform="translate(2357.03125 0)"/>
     <use xlink:href="#ArialMT-61" transform="translate(2412.646484 0)"/>
     <use xlink:href="#ArialMT-6e" transform="translate(2468.261719 0)"/>
     <use xlink:href="#ArialMT-69" transform="translate(2523.876953 0)"/>
     <use xlink:href="#ArialMT-63" transform="translate(2546.09375 0)"/>
     <use xlink:href="#ArialMT-73" transform="translate(2596.09375 0)"/>
     <use xlink:href="#ArialMT-20" transform="translate(2646.09375 0)"/>
     <use xlink:href="#ArialMT-28" transform="translate(2673.876953 0)"/>
     <use xlink:href="#ArialMT-72" transform="translate(2707.177734 0)"/>
     <use xlink:href="#ArialMT-6f" transform="translate(2740.478516 0)"/>
     <use xlink:href="#ArialMT-6c" transform="translate(2796.09375 0)"/>
     <use xlink:href="#ArialMT-6c" transform="translate(2818.310547 0)"/>
     <use xlink:href="#ArialMT-2c" transform="translate(2840.527344 0)"/>
     <use xlink:href="#ArialMT-20" transform="translate(2868.310547 0)"/>
     <use xlink:href="#ArialMT-70" transform="translate(2896.09375 0)"/>
     <use xlink:href="#ArialMT-61" transform="translate(2951.708984 0)"/>
     <use xlink:href="#ArialMT-72" transform="translate(3007.324219 0)"/>
     <use xlink:href="#ArialMT-74" transform="translate(3040.625 0)"/>
     <use xlink:href="#ArialMT-69" transform="translate(3068.408203 0)"/>
     <use xlink:href="#ArialMT-74" transform="translate(3090.625 0)"/>
     <use xlink:href="#ArialMT-69" transform="translate(3118.408203 0)"/>
     <use xlink:href="#ArialMT-6f" transform="translate(3140.625 0)"/>
     <use xlink:href="#ArialMT-6e" transform="translate(3196.240234 0)"/>
     <use xlink:href="#ArialMT-2c" transform="translate(3251.855469 0)"/>
     <use xlink:href="#ArialMT-20" transform="translate(3279.638672 0)"/>
     <use xlink:href="#ArialMT-72" transform="translate(3307.421875 0)"/>
     <use xlink:href="#ArialMT-65" transform="translate(3340.722656 0)"/>
     <use xlink:href="#ArialMT-76" transform="translate(3396.337891 0)"/>
     <use xlink:href="#ArialMT-65" transform="translate(3446.337891 0)"/>
     <use xlink:href="#ArialMT-72" transform="translate(3501.953125 0)"/>
     <use xlink:href="#ArialMT-73" transform="translate(3535.253906 0)"/>
     <use xlink:href="#ArialMT-65" transform="translate(3585.253906 0)"/>
     <use xlink:href="#ArialMT-2c" transform="translate(3640.869141 0)"/>
     <use xlink:href="#ArialMT-20" transform="translate(3668.652344 0)"/>
     <use xlink:href="#ArialMT-6d" transform="translate(3696.435547 0)"/>
     <use xlink:href="#ArialMT-61" transform="translate(3779.736328 0)"/>
     <use xlink:href="#ArialMT-73" transform="translate(3835.351562 0)"/>
     <use xlink:href="#ArialMT-6b" transform="translate(3885.351562 0)"/>
     <use xlink:href="#ArialMT-29" transform="translate(3935.351562 0)"/>
    </g>
   </g>
  </g>
 </g>
 <defs>
  <clipPath id="p107746c2a9">
   <rect x="100.693516" y="45.953951" width="421.056" height="199.728"/>
  </clipPath>
 </defs>
</svg>
